<?xml version="1.0" encoding="UTF-8"?>
<svg version="1.1" xmlns="http://www.w3.org/2000/svg" width="3253" height="946">
<path d="M0 0 C55.77 0 111.54 0 169 0 C169.33 143.22 169.66 286.44 170 434 C178.70414314 422.57581213 187.29844391 411.26279385 195.64453125 399.609375 C200.06295234 393.49135674 204.67737345 387.52305432 209.26953125 381.53515625 C213.33395129 376.22316327 217.29023722 370.85891697 221.13354492 365.38574219 C225.62168033 359.03971018 230.38888805 352.90600766 235.1171875 346.73828125 C238.83096316 341.8823444 242.4869883 337.00301322 246 332 C250.84606537 325.09853449 255.98717466 318.43001386 261.1171875 311.73828125 C264.83096316 306.8823444 268.4869883 302.00301322 272 297 C276.17970714 291.04752052 280.5751697 285.27202808 285 279.5 C289.84431121 273.17941248 294.61612707 266.83174867 299.20092773 260.32080078 C304.71582532 252.52035715 310.51663964 244.92855006 316.26708984 237.30126953 C317.82398455 235.23374495 319.37645323 233.16304136 320.92578125 231.08984375 C321.34722412 230.52604004 321.76866699 229.96223633 322.20288086 229.38134766 C323.28905983 227.92752844 324.37500856 226.47353723 325.4609375 225.01953125 C327 223 327 223 328 222 C330.68069332 221.90216304 333.33561123 221.87006089 336.01673889 221.87974548 C336.86697221 221.87889106 337.71720552 221.87803663 338.59320349 221.87715632 C341.4645817 221.8754989 344.33590249 221.88102714 347.20727539 221.88647461 C349.2566579 221.88675645 351.30604052 221.88659881 353.35542297 221.8860321 C358.93783912 221.88574401 364.52023398 221.89164264 370.10264516 221.89860606 C375.92962999 221.90483764 381.75661526 221.90544324 387.58360291 221.90663147 C398.62627294 221.90974536 409.66893313 221.91795953 420.71159881 221.92798096 C433.27970079 221.93914029 445.84780323 221.94465209 458.41590893 221.94967639 C484.27727809 221.9601421 510.13863849 221.97774266 536 222 C534.1841514 225.8597773 531.72031108 228.86264639 528.9375 232.0625 C527.93544131 233.22981968 526.93414971 234.39779826 525.93359375 235.56640625 C525.43585449 236.14664551 524.93811523 236.72688477 524.42529297 237.32470703 C522.41474314 239.6879124 520.45585357 242.09143529 518.5 244.5 C515.2117626 248.53983452 511.87268539 252.53083277 508.5 256.5 C503.59454156 262.27542544 498.77971335 268.11992099 494 274 C489.2202825 279.88008412 484.40526403 285.72440611 479.5 291.5 C475.44999489 296.26921695 471.45648144 301.07912116 467.50390625 305.9296875 C459.68971525 315.51151921 451.83306826 325.05570308 443.82592773 334.47705078 C440.33583103 338.58856592 436.91060741 342.74901309 433.50390625 346.9296875 C425.68971525 356.51151921 417.83306826 366.05570308 409.82592773 375.47705078 C406.33583103 379.58856592 402.91060741 383.74901309 399.50390625 387.9296875 C391.68971525 397.51151921 383.83306826 407.05570308 375.82592773 416.47705078 C372.33583103 420.58856592 368.91060741 424.74901309 365.50390625 428.9296875 C357.68971525 438.51151921 349.83306826 448.05570308 341.82592773 457.47705078 C338.35017571 461.57166715 334.93806658 465.71417644 331.546875 469.87890625 C328.19364743 473.99536846 324.81383652 478.08999189 321.4375 482.1875 C320.80481201 482.95545898 320.17212402 483.72341797 319.52026367 484.51464844 C318.01365934 486.34322284 316.50690926 488.17167689 315 490 C318.26680841 494.44849305 321.54919647 498.76570844 325.3125 502.8125 C329.22436259 507.09598953 332.90852261 511.51639314 336.55859375 516.0234375 C339.28530284 519.34784123 342.0707296 522.61604359 344.875 525.875 C350.16263711 532.02015974 355.41112038 538.19685809 360.64111328 544.39111328 C362.46709773 546.55303163 364.29510325 548.7132358 366.12329102 550.87329102 C367.03931879 551.95566254 367.95517236 553.03818153 368.87084961 554.12084961 C371.18456788 556.85636732 373.50043895 559.59001211 375.8203125 562.3203125 C380.05079624 567.30314347 384.2585368 572.29702715 388.375 577.375 C392.54156423 582.49733524 396.86201281 587.47417378 401.20043945 592.45043945 C405.12489097 596.96215363 408.93426783 601.55325555 412.69921875 606.19921875 C415.38058916 609.46329783 418.12062863 612.6725072 420.875 615.875 C421.38208496 616.46458496 421.88916992 617.05416992 422.41162109 617.66162109 C422.91902832 618.25152832 423.42643555 618.84143555 423.94921875 619.44921875 C430.17522367 626.68816124 436.3608624 633.95865909 442.375 641.375 C446.54156423 646.49733524 450.86201281 651.47417378 455.20043945 656.45043945 C459.12489097 660.96215363 462.93426783 665.55325555 466.69921875 670.19921875 C469.88035204 674.07166793 473.14753555 677.86728783 476.41601562 681.66601562 C481.18706167 687.21107167 485.91348405 692.79283679 490.63232422 698.38232422 C492.02459417 700.02908979 493.42005473 701.67310067 494.81640625 703.31640625 C499.04853633 708.30026248 503.25737398 713.29559272 507.375 718.375 C510.99725347 722.82816466 514.72871424 727.17345951 518.5 731.5 C523.02296865 736.68966218 527.45869172 741.9325604 531.7890625 747.28515625 C533.4357695 749.3071728 535.09521318 751.31303875 536.7734375 753.30859375 C537.23790283 753.86135986 537.70236816 754.41412598 538.1809082 754.98364258 C539.49528621 756.54514874 540.81203301 758.10466009 542.12890625 759.6640625 C544 762 544 762 544 763 C516.84462545 763.42097469 489.68974161 763.7381338 462.53175831 763.93261909 C449.92085846 764.02533454 437.3119889 764.15166702 424.70239258 764.35791016 C413.70827138 764.53764438 402.71562058 764.65352084 391.72007102 764.69359291 C385.90007307 764.71701094 380.08428039 764.77179367 374.26563454 764.90314102 C368.78043664 765.02595035 363.30114514 765.06289801 357.81470299 765.03593826 C355.80897688 765.0408641 353.80304009 765.0763349 351.79850769 765.14569855 C337.07550944 765.62989015 337.07550944 765.62989015 331.9215734 761.22272253 C328.04786315 756.90074935 325.04741149 752.13744569 322.20644319 747.09337687 C320.67271194 744.43210152 318.89276087 742.00912065 317.01953125 739.578125 C316.21213501 738.48745728 316.21213501 738.48745728 315.38842773 737.37475586 C314.86837158 736.67358643 314.34831543 735.97241699 313.8125 735.25 C308.99598961 728.73362313 304.24134194 722.1788481 299.546875 715.57421875 C294.96009787 709.12474489 290.30666647 702.72292607 285.66894531 696.31005859 C284.03481701 694.04819171 282.4036287 691.78423692 280.7734375 689.51953125 C275.22450027 681.8146913 269.64176126 674.1371894 264 666.5 C257.80988881 658.12051542 251.69525691 649.68892637 245.60888672 641.23388672 C242.90987872 637.48640216 240.20461116 633.74344155 237.5 630 C236.41663696 628.50002146 235.33330362 627.00002146 234.25 625.5 C233.71375 624.7575 233.1775 624.015 232.625 623.25 C227.75 616.5 227.75 616.5 226.12524414 614.25024414 C225.04121584 612.7493445 223.95706858 611.24853078 222.87280273 609.74780273 C220.17412345 606.01226033 217.47748688 602.27527746 214.78515625 598.53515625 C208.65611895 590.02591029 202.47577784 581.55751387 196.24389648 573.12329102 C191.15754907 566.23208778 186.1366562 559.29499989 181.1328125 552.34375 C177.43645204 547.21862179 173.716669 542.11041988 170 537 C169.67 611.58 169.34 686.16 169 763 C113.23 763 57.46 763 0 763 C0 511.21 0 259.42 0 0 Z " fill="#092B55" transform="translate(2709,85)"/>
<path d="M0 0 C0.89203125 0.6703125 1.7840625 1.340625 2.703125 2.03125 C15.46084519 12.02852781 26.65252126 23.78405456 36 37 C36.38929688 37.53431641 36.77859375 38.06863281 37.1796875 38.61914062 C72.54328796 87.33076674 81.58021123 146.86784237 81.34819686 205.53323448 C81.33497902 209.74612297 81.3396437 213.95900206 81.34190369 218.17190552 C81.34346053 225.43422631 81.33422026 232.69646491 81.31719017 239.95876503 C81.29258527 250.4582215 81.28497321 260.9576391 81.2812262 271.45712128 C81.27469498 288.50065208 81.25482529 305.54413929 81.22631836 322.58764648 C81.19869082 339.12280058 81.17753455 355.65794269 81.16479492 372.19311523 C81.16399093 373.22638185 81.16318694 374.25964847 81.16235858 375.3242262 C81.15611863 383.4076172 81.15024845 391.49100847 81.14449489 399.57439983 C81.11630315 439.04963993 81.05592272 478.52477061 81 518 C25.89 518 -29.22 518 -86 518 C-86.04898438 496.32183594 -86.09796875 474.64367187 -86.1484375 452.30859375 C-86.18383092 438.55924099 -86.21970361 424.80989198 -86.2578125 411.06054688 C-86.27781734 403.8339034 -86.29770127 396.6072596 -86.31738281 389.38061523 C-86.31985425 388.47500522 -86.32232569 387.56939521 -86.32487202 386.63634247 C-86.36447685 372.05946166 -86.39726941 357.4825732 -86.42749982 342.90567028 C-86.45873039 327.92044201 -86.49738833 312.93524584 -86.54279006 297.95005375 C-86.57052428 288.72039308 -86.59262172 279.4907556 -86.60726251 270.26106472 C-86.61789112 263.91232172 -86.63580261 257.56362391 -86.65916704 251.21491515 C-86.67239452 247.564548 -86.6826752 243.91424354 -86.68421364 240.26385117 C-86.70740431 199.85957247 -88.92377129 159.23998313 -119 129 C-119.57621094 128.38898438 -120.15242188 127.77796875 -120.74609375 127.1484375 C-138.31933868 110.0057175 -165.6922734 105.59513112 -189.20703125 105.8515625 C-214.05087804 106.82382427 -237.25726234 113.85609047 -255 132 C-276.84244806 156.88081024 -284.13128534 188.7602547 -284.15821838 221.09159851 C-284.16315636 222.36689842 -284.16809434 223.64219832 -284.17318195 224.95614368 C-284.18664345 228.46577556 -284.19414622 231.97539786 -284.20060861 235.48504865 C-284.20866585 239.28108476 -284.22234501 243.07710127 -284.23532104 246.87312317 C-284.25700882 253.43999805 -284.27518117 260.00687499 -284.29092598 266.57376671 C-284.31369512 276.06824203 -284.34182793 285.56269559 -284.37124526 295.05715237 C-284.41883514 310.46346629 -284.46212247 325.86978914 -284.50268555 341.27612305 C-284.54208437 356.2367421 -284.58353208 371.19735318 -284.62768555 386.15795898 C-284.63043505 387.09043695 -284.63318456 388.02291492 -284.63601738 388.98364979 C-284.65753813 396.27687497 -284.67917723 403.5700998 -284.70085371 410.86332452 C-284.80696508 446.57553359 -284.9027591 482.28776355 -285 518 C-340.77 518 -396.54 518 -454 518 C-454 339.47 -454 160.94 -454 -23 C-398.23 -23 -342.46 -23 -285 -23 C-284.67 -2.54 -284.34 17.92 -284 39 C-281.36 35.7 -278.72 32.4 -276 29 C-242.96470151 -8.96594006 -199.43243848 -31.86228297 -148.80078125 -35.7890625 C-96.78312297 -38.67596234 -42.64675448 -32.51520508 0 0 Z " fill="#092B55" transform="translate(2544,330)"/>
<path d="M0 0 C2.77141802 2.57724224 5.41205489 5.23995017 8 8 C8.804375 8.804375 9.60875 9.60875 10.4375 10.4375 C11.283125 11.283125 12.12875 12.12875 13 13 C13.96679688 13.91458984 13.96679688 13.91458984 14.953125 14.84765625 C49.03338893 47.67672168 68.92939974 97.84997281 79 143 C79 143.66 79 144.32 79 145 C19.27 145 -40.46 145 -102 145 C-104.31 140.05 -106.62 135.1 -109 130 C-112.9497365 122.18456395 -117.23116133 115.583522 -123 109 C-123.59296875 108.31164062 -124.1859375 107.62328125 -124.796875 106.9140625 C-138.16093557 92.4648859 -158.80728333 83.81766649 -178.24902344 82.8359375 C-205.39047446 81.95686216 -229.4996779 84.93046237 -250.23046875 103.89453125 C-256.32325575 109.68291305 -261.58065643 115.83435007 -266 123 C-266.64453125 124.01191406 -267.2890625 125.02382813 -267.953125 126.06640625 C-280.55463813 146.820425 -286.81551532 171.97066849 -289 196 C-289.10957031 197.08152344 -289.21914062 198.16304687 -289.33203125 199.27734375 C-293.01311342 241.33984272 -287.58123321 291.9579961 -260.5 326.125 C-259.02623972 327.77383463 -257.52567393 329.39908025 -256 331 C-255.15953125 331.92941406 -254.3190625 332.85882812 -253.453125 333.81640625 C-238.83405077 349.34389116 -218.97250516 357.67422744 -197.703125 358.43359375 C-195.2188626 358.45728316 -192.73428983 358.4581125 -190.25 358.4375 C-188.93813721 358.42847656 -187.62627441 358.41945313 -186.2746582 358.41015625 C-161.66841391 357.97306266 -140.6479249 349.83360282 -123.2265625 332.19140625 C-113.75909537 321.45675506 -107.89190944 308.96220077 -102 296 C-42.27 296 17.46 296 79 296 C74.34988983 315.76296823 74.34988983 315.76296823 72.125 322.5625 C71.74275269 323.74598022 71.74275269 323.74598022 71.3527832 324.95336914 C60.64613817 357.70523655 45.33971617 388.46305726 22.40014648 414.41137695 C21.3924902 415.5546759 20.39295424 416.70515042 19.39868164 417.86010742 C8.93797952 429.9750739 -2.39213231 441.30004463 -15.3203125 450.76904297 C-16.9970759 451.99785707 -18.65487153 453.24944508 -20.3125 454.50390625 C-51.9719988 478.13315316 -89.47259428 492.70504513 -128.125 499.75 C-129.2070874 499.94867676 -130.2891748 500.14735352 -131.40405273 500.35205078 C-149.57133868 503.49739945 -167.58954398 504.37761955 -186 504.3125 C-187.07338623 504.31067719 -188.14677246 504.30885437 -189.25268555 504.30697632 C-266.6372777 504.08623494 -336.48561179 477.84246866 -391.35058594 422.83251953 C-396.2618805 417.82808482 -400.73452279 412.56757025 -405 407 C-405.40895508 406.47277344 -405.81791016 405.94554687 -406.23925781 405.40234375 C-447.23434943 352.30276603 -464.29526681 287.47527651 -464.1875 221.125 C-464.18656342 220.36820953 -464.18562683 219.61141907 -464.18466187 218.83169556 C-463.96989198 137.97136095 -437.34822444 64.01354024 -379.83251953 6.64941406 C-374.82821659 1.73824881 -369.56853928 -2.73600473 -364 -7 C-363.45682129 -7.41958984 -362.91364258 -7.83917969 -362.35400391 -8.27148438 C-352.36240098 -15.95086503 -341.91400374 -22.70807223 -331 -29 C-329.89495117 -29.64001953 -329.89495117 -29.64001953 -328.76757812 -30.29296875 C-242.10825987 -79.83435562 -116.6597986 -75.16662896 0 0 Z " fill="#092B55" transform="translate(1528,357)"/>
<path d="M0 0 C1.45304289 0.00345514 2.90608658 0.00659084 4.35913086 0.00939941 C7.88787486 0.01690672 11.41658846 0.02873569 14.9453125 0.04296875 C14.99673845 79.95313556 15.04443588 159.86330438 15.07234192 239.77348328 C15.07275609 240.95644947 15.07317026 242.13941565 15.07359698 243.3582293 C15.08257601 269.06815827 15.09088651 294.7780874 15.09850849 320.4880168 C15.10225045 333.09642205 15.10614012 345.70482725 15.11010742 358.31323242 C15.1104997 359.5679107 15.11089198 360.82258899 15.11129614 362.11528782 C15.1240769 402.77251044 15.14660839 443.42972053 15.17420416 484.08693557 C15.20251424 525.87250433 15.22097169 567.65806617 15.22705747 609.44364437 C15.22792192 615.34750739 15.22889883 621.25137039 15.22994423 627.15523338 C15.23024763 628.89815616 15.23024763 628.89815616 15.23055717 630.6762895 C15.23410033 649.36963177 15.24800918 668.06295261 15.2658086 686.75628615 C15.28348753 705.55594084 15.29021212 724.3555743 15.28581663 743.155237 C15.28353742 754.32018551 15.28959566 765.48505625 15.30770513 776.6499907 C15.31898666 784.11647824 15.31928112 791.58291509 15.31080794 799.04940619 C15.3062957 803.29838518 15.30640248 807.5472175 15.31996205 811.79618052 C15.44109932 852.08664263 15.44109932 852.08664263 9.2578125 869.29296875 C9.00435059 870.02201416 8.75088867 870.75105957 8.48974609 871.50219727 C-1.9940612 900.45373108 -23.7237545 922.60094486 -51.0546875 936.04296875 C-69.23376027 944.53522377 -88.43712166 946.23400887 -108.2421875 946.10546875 C-109.58919102 946.10043838 -110.93619639 946.09587822 -112.28320312 946.09179688 C-115.54041287 946.08012229 -118.79752528 946.06374758 -122.0546875 946.04296875 C-122.10610944 865.81856241 -122.15380742 785.59415409 -122.18171692 705.36973572 C-122.18213109 704.1822642 -122.18254526 702.99479269 -122.18297198 701.77133719 C-122.19195084 675.96397274 -122.20026137 650.15660811 -122.20788349 624.34924323 C-122.21162548 611.69319662 -122.21551514 599.03715006 -122.21948242 586.38110352 C-122.2198747 585.12167919 -122.22026698 583.86225486 -122.22067114 582.56466615 C-122.23345367 541.74795858 -122.25598648 500.93126347 -122.28357916 460.11456345 C-122.31188426 418.16779475 -122.33034554 376.22103294 -122.33643247 334.27425485 C-122.33729693 328.34866843 -122.33827384 322.42308204 -122.33931923 316.49749565 C-122.3395215 315.33126284 -122.33972377 314.16503002 -122.33993217 312.96345682 C-122.3434764 294.19533295 -122.35738813 275.42723042 -122.3751836 256.65911525 C-122.39285543 237.7878019 -122.3995889 218.9165097 -122.39519163 200.04518837 C-122.39291107 188.83538377 -122.39898269 177.62565657 -122.41708013 166.41586595 C-122.42835103 158.92203131 -122.42866353 151.4282472 -122.42018294 143.93440904 C-122.41566518 139.6681704 -122.41580046 135.40207789 -122.42933705 131.13585509 C-122.54440927 92.57606022 -116.14541898 61.87667008 -89.0546875 33.04296875 C-88.5390625 32.45128906 -88.0234375 31.85960938 -87.4921875 31.25 C-65.30634199 6.92645584 -31.31180849 -0.1301292 0 0 Z " fill="#092B55" transform="translate(322.0546875,-0.04296875)"/>
<path d="M0 0 C0 58.74 0 117.48 0 178 C-18.48 178.33 -36.96 178.66 -56 179 C-86.9401532 181.6904481 -117.13655983 185.58858304 -141 207 C-141.60972656 207.51691406 -142.21945312 208.03382813 -142.84765625 208.56640625 C-161.88098971 225.8654952 -169.09243515 255.40232513 -171 280 C-171.38781805 288.94431085 -171.31176049 297.90444678 -171.31884766 306.85522461 C-171.3281584 309.55691709 -171.33824336 312.25859647 -171.34928894 314.96028137 C-171.37143359 320.75006024 -171.38652328 326.53982182 -171.39665604 332.32963371 C-171.41131628 340.70045637 -171.43687305 349.0712187 -171.46498732 357.4420057 C-171.51032278 371.0269949 -171.54699196 384.61199285 -171.578125 398.19702148 C-171.60836506 411.38421158 -171.64276249 424.57138023 -171.68261719 437.75854492 C-171.6850987 438.58132079 -171.6875802 439.40409666 -171.69013691 440.25180513 C-171.70957959 446.68760054 -171.72926139 453.12339522 -171.74901867 459.55918968 C-171.84559895 491.03943364 -171.92134581 522.51969628 -172 554 C-227.77 554 -283.54 554 -341 554 C-341 375.47 -341 196.94 -341 13 C-285.23 13 -229.46 13 -172 13 C-171.67 39.4 -171.34 65.8 -171 93 C-168.03 89.04 -165.06 85.08 -162 81 C-160.1274108 78.67322898 -158.2618364 76.38225706 -156.3125 74.125 C-155.81758057 73.55112549 -155.32266113 72.97725098 -154.81274414 72.38598633 C-145.71735679 61.98418861 -135.9251406 52.46970359 -125 44 C-124.04222656 43.22527344 -123.08445312 42.45054687 -122.09765625 41.65234375 C-85.98765308 12.91916342 -45.88758742 0 0 0 Z " fill="#092B55" transform="translate(2024,294)"/>
<path d="M0 0 C4.56744875 -0.050281 9.13472861 -0.08612529 13.70239258 -0.10986328 C15.24897068 -0.11978237 16.79553076 -0.13332187 18.34204102 -0.15087891 C50.71764604 -0.5086204 78.51439367 8.44944993 103 30 C103.60972656 30.5259375 104.21945312 31.051875 104.84765625 31.59375 C124.87280453 50.15133422 135.72966414 78.31453347 137.16820906 105.13626514 C137.42088361 113.19075189 137.39715158 121.2471125 137.36679858 129.30459077 C137.35636212 132.97836395 137.36363345 136.65211287 137.36853105 140.32589179 C137.37471312 146.74673364 137.36988849 153.16749157 137.35761642 159.58832359 C137.33941975 169.13566622 137.33861747 178.68295657 137.34124239 188.23031338 C137.34517324 204.29487689 137.33520124 220.35940322 137.31719017 236.42395592 C137.29941361 252.32023999 137.28788719 268.21650857 137.28463173 284.11280251 C137.28442551 285.1027344 137.28421929 286.09266629 137.28400682 287.11259612 C137.28299177 292.14035801 137.28208764 297.16811991 137.2812262 302.19588182 C137.27493198 337.76870062 137.25473954 373.34149922 137.22631836 408.91430664 C137.19874672 443.46378472 137.17750487 478.01325726 137.16479492 512.56274414 C137.16440034 513.62849512 137.16400576 514.6942461 137.16359923 515.79229256 C137.15964353 526.49541069 137.15581611 537.19852887 137.15208265 547.90164707 C137.14447487 569.70337801 137.13601111 591.50510858 137.12702942 613.30683899 C137.12641161 614.8103131 137.12641161 614.8103131 137.12578133 616.34416042 C137.09819886 683.22944868 137.05066556 750.11472573 137 817 C131.50892175 817.10067558 126.01840809 817.17229762 120.52661133 817.21972656 C118.66779192 817.23954715 116.80903225 817.26661182 114.95043945 817.30175781 C82.59439781 817.89721406 54.55518091 807.58740686 30.91796875 784.9765625 C12.83896075 766.98708409 0.1622735 740.15382236 -0.1241985 714.51394945 C-0.12893117 712.30735747 -0.12814728 710.10074953 -0.12304783 707.89415836 C-0.12420167 706.6704524 -0.12535552 705.44674644 -0.12654433 704.18595847 C-0.12873644 700.78658755 -0.12644191 697.38727305 -0.12226619 693.98790751 C-0.11882879 690.29078456 -0.1212034 686.59366461 -0.12284368 682.89654106 C-0.12491707 676.4161123 -0.12327423 669.93569273 -0.11920547 663.45526505 C-0.11317218 653.81909538 -0.11286951 644.18293151 -0.11374746 634.5467603 C-0.11506166 618.33744683 -0.11171881 602.12813743 -0.10573006 585.91882515 C-0.09981486 569.86748802 -0.09596448 553.81615259 -0.09487724 537.76481438 C-0.0948085 536.76712587 -0.09473976 535.76943737 -0.09466894 534.74151588 C-0.09433061 529.67484625 -0.09402923 524.60817663 -0.09374207 519.541507 C-0.09164115 483.64591562 -0.08490239 447.75032646 -0.07543945 411.85473633 C-0.06625643 376.98071301 -0.05917212 342.1066903 -0.05493164 307.23266602 C-0.05480011 306.15786644 -0.05466859 305.08306687 -0.05453308 303.97569761 C-0.05321457 293.18220701 -0.05193875 282.3887164 -0.05069422 271.59522579 C-0.04815794 249.60726129 -0.04533669 227.61929684 -0.04234314 205.6313324 C-0.04220585 204.6203414 -0.04206856 203.60935041 -0.04192711 202.56772332 C-0.03272505 135.04514796 -0.01687969 67.52257383 0 0 Z " fill="#092B55" transform="translate(600,0)"/>
<path d="M0 0 C45.21 0 90.42 0 137 0 C137 146.52 137 293.04 137 444 C93.16829536 444 61.13114392 439.08160115 29.703125 407.70703125 C3.89552818 380.43107116 -0.48919066 347.00592043 -0.34819686 311.11318195 C-0.33511516 306.92871182 -0.33963444 302.74425353 -0.34190369 298.55976868 C-0.34346883 291.32833944 -0.33413956 284.09699207 -0.31719017 276.86558342 C-0.292701 266.41048211 -0.28498481 255.95541996 -0.2812262 245.50029308 C-0.27467719 228.53329476 -0.25475831 211.56633996 -0.22631836 194.59936523 C-0.19873751 178.12768775 -0.17752368 161.65602212 -0.16479492 145.18432617 C-0.16400675 144.16723998 -0.16321858 143.1501538 -0.16240653 142.10224681 C-0.15849112 136.9992953 -0.15470007 131.89634371 -0.15097082 126.79339206 C-0.11992323 84.52888937 -0.06464636 42.26446728 0 0 Z " fill="#092B55" transform="translate(400,0)"/>
<path d="M0 0 C0 146.52 0 293.04 0 444 C-43.9547265 444 -75.88948989 439.06100244 -107.296875 407.70703125 C-131.16310912 382.4828907 -137.31634811 351.33754058 -137.2746582 317.7409668 C-137.27901239 315.41183307 -137.28419788 313.08270076 -137.29014587 310.75357056 C-137.30347118 304.46212019 -137.30412176 298.17073013 -137.30158257 291.87926841 C-137.30037216 285.94285092 -137.30660425 280.00644335 -137.31201603 274.07002888 C-137.32286117 261.59249171 -137.3207435 249.11498165 -137.31463119 236.63744298 C-137.30946495 225.25899708 -137.32071513 213.88063686 -137.33972941 202.5022079 C-137.35916944 190.77779586 -137.36735303 179.05342424 -137.36360615 167.328996 C-137.36180019 160.76307448 -137.36436067 154.19723145 -137.37832069 147.63132286 C-137.39096653 141.45304701 -137.38889136 135.27494171 -137.37590981 129.09666824 C-137.37355912 126.84137856 -137.37622395 124.58607661 -137.38453293 122.33080101 C-137.49456037 90.12065942 -129.76474697 61.49632255 -108 37 C-107.19949219 36.09894531 -106.39898437 35.19789063 -105.57421875 34.26953125 C-76.73081755 3.82109626 -40.38298188 0 0 0 Z " fill="#092B55" transform="translate(137,502)"/>
<path d="M0 0 C1.59159143 0.00596876 3.18318504 0.01138483 4.77478027 0.01623535 C8.6376685 0.02919449 12.50045032 0.04962158 16.36328125 0.07421875 C16.43204409 42.80999478 16.48485906 85.54576439 16.51647724 128.28158485 C16.52022907 133.33428908 16.52411207 138.3869932 16.52807617 143.43969727 C16.5288631 144.44554116 16.52965003 145.45138506 16.53046081 146.48770907 C16.54349192 162.74467089 16.56713304 179.00160067 16.59473964 195.25854353 C16.62285785 211.95682652 16.63947104 228.65509281 16.64554673 245.3533985 C16.6496499 255.64566012 16.66257914 265.93783117 16.68703065 276.23006489 C16.70296716 283.30108052 16.70766382 290.37204976 16.70378538 297.44308201 C16.70187607 301.51425851 16.70466886 305.58527746 16.72089767 309.65642548 C16.86744916 348.38931885 11.12848575 382.34895787 -16.94921875 410.88671875 C-38.17286028 431.79374835 -65.94472364 443.43996526 -95.74134827 443.360672 C-98.20670688 443.33778485 -100.67155987 443.30022929 -103.13671875 443.26171875 C-104.84634216 443.24661951 -106.55597871 443.23294052 -108.265625 443.22070312 C-112.3896575 443.18816995 -116.51303561 443.13668909 -120.63671875 443.07421875 C-120.72841222 399.84589774 -120.79882737 356.61758801 -120.84098007 313.3891889 C-120.84598248 308.27768827 -120.85115981 303.16618784 -120.85644531 298.0546875 C-120.85749455 297.03714346 -120.8585438 296.01959941 -120.85962483 294.9712207 C-120.87699736 278.52739229 -120.90851756 262.08362021 -120.94532993 245.63982514 C-120.9828273 228.74830671 -121.00497314 211.85681765 -121.01307273 194.96525931 C-121.01854231 184.55473921 -121.03577398 174.14437836 -121.06838462 163.73390731 C-121.08964127 156.58064669 -121.09589376 149.42746756 -121.09072426 142.2741777 C-121.0881797 138.15624916 -121.0918878 134.03859756 -121.11354065 129.92071915 C-121.2831796 95.93981891 -116.63025277 65.52171711 -93.63671875 39.07421875 C-93.15976562 38.46578125 -92.6828125 37.85734375 -92.19140625 37.23046875 C-87.75863199 31.65783825 -82.25015883 27.40591047 -76.63671875 23.07421875 C-75.85425781 22.46449219 -75.07179688 21.85476563 -74.265625 21.2265625 C-52.16372364 4.86444665 -26.91493846 -0.17660007 0 0 Z " fill="#092B55" transform="translate(920.63671875,373.92578125)"/>
</svg>
