<?xml version="1.0" encoding="UTF-8"?>
<svg version="1.1" xmlns="http://www.w3.org/2000/svg" width="937" height="946">
<path d="M0 0 C1.45304289 0.00345514 2.90608658 0.00659084 4.35913086 0.00939941 C7.88787486 0.01690672 11.41658846 0.02873569 14.9453125 0.04296875 C14.99673845 79.95313556 15.04443588 159.86330438 15.07234192 239.77348328 C15.07275609 240.95644947 15.07317026 242.13941565 15.07359698 243.3582293 C15.08257601 269.06815827 15.09088651 294.7780874 15.09850849 320.4880168 C15.10225045 333.09642205 15.10614012 345.70482725 15.11010742 358.31323242 C15.1104997 359.5679107 15.11089198 360.82258899 15.11129614 362.11528782 C15.1240769 402.77251044 15.14660839 443.42972053 15.17420416 484.08693557 C15.20251424 525.87250433 15.22097169 567.65806617 15.22705747 609.44364437 C15.22792192 615.34750739 15.22889883 621.25137039 15.22994423 627.15523338 C15.23024763 628.89815616 15.23024763 628.89815616 15.23055717 630.6762895 C15.23410033 649.36963177 15.24800918 668.06295261 15.2658086 686.75628615 C15.28348753 705.55594084 15.29021212 724.3555743 15.28581663 743.155237 C15.28353742 754.32018551 15.28959566 765.48505625 15.30770513 776.6499907 C15.31898666 784.11647824 15.31928112 791.58291509 15.31080794 799.04940619 C15.3062957 803.29838518 15.30640248 807.5472175 15.31996205 811.79618052 C15.44109932 852.08664263 15.44109932 852.08664263 9.2578125 869.29296875 C9.00435059 870.02201416 8.75088867 870.75105957 8.48974609 871.50219727 C-1.9940612 900.45373108 -23.7237545 922.60094486 -51.0546875 936.04296875 C-69.23376027 944.53522377 -88.43712166 946.23400887 -108.2421875 946.10546875 C-109.58919102 946.10043838 -110.93619639 946.09587822 -112.28320312 946.09179688 C-115.54041287 946.08012229 -118.79752528 946.06374758 -122.0546875 946.04296875 C-122.10610944 865.81856241 -122.15380742 785.59415409 -122.18171692 705.36973572 C-122.18213109 704.1822642 -122.18254526 702.99479269 -122.18297198 701.77133719 C-122.19195084 675.96397274 -122.20026137 650.15660811 -122.20788349 624.34924323 C-122.21162548 611.69319662 -122.21551514 599.03715006 -122.21948242 586.38110352 C-122.2198747 585.12167919 -122.22026698 583.86225486 -122.22067114 582.56466615 C-122.23345367 541.74795858 -122.25598648 500.93126347 -122.28357916 460.11456345 C-122.31188426 418.16779475 -122.33034554 376.22103294 -122.33643247 334.27425485 C-122.33729693 328.34866843 -122.33827384 322.42308204 -122.33931923 316.49749565 C-122.3395215 315.33126284 -122.33972377 314.16503002 -122.33993217 312.96345682 C-122.3434764 294.19533295 -122.35738813 275.42723042 -122.3751836 256.65911525 C-122.39285543 237.7878019 -122.3995889 218.9165097 -122.39519163 200.04518837 C-122.39291107 188.83538377 -122.39898269 177.62565657 -122.41708013 166.41586595 C-122.42835103 158.92203131 -122.42866353 151.4282472 -122.42018294 143.93440904 C-122.41566518 139.6681704 -122.41580046 135.40207789 -122.42933705 131.13585509 C-122.54440927 92.57606022 -116.14541898 61.87667008 -89.0546875 33.04296875 C-88.5390625 32.45128906 -88.0234375 31.85960938 -87.4921875 31.25 C-65.30634199 6.92645584 -31.31180849 -0.1301292 0 0 Z " fill="#092B55" transform="translate(322.0546875,-0.04296875)"/>
<path d="M0 0 C4.56744875 -0.050281 9.13472861 -0.08612529 13.70239258 -0.10986328 C15.24897068 -0.11978237 16.79553076 -0.13332187 18.34204102 -0.15087891 C50.71764604 -0.5086204 78.51439367 8.44944993 103 30 C103.60972656 30.5259375 104.21945312 31.051875 104.84765625 31.59375 C124.87280453 50.15133422 135.72966414 78.31453347 137.16820906 105.13626514 C137.42088361 113.19075189 137.39715158 121.2471125 137.36679858 129.30459077 C137.35636212 132.97836395 137.36363345 136.65211287 137.36853105 140.32589179 C137.37471312 146.74673364 137.36988849 153.16749157 137.35761642 159.58832359 C137.33941975 169.13566622 137.33861747 178.68295657 137.34124239 188.23031338 C137.34517324 204.29487689 137.33520124 220.35940322 137.31719017 236.42395592 C137.29941361 252.32023999 137.28788719 268.21650857 137.28463173 284.11280251 C137.28442551 285.1027344 137.28421929 286.09266629 137.28400682 287.11259612 C137.28299177 292.14035801 137.28208764 297.16811991 137.2812262 302.19588182 C137.27493198 337.76870062 137.25473954 373.34149922 137.22631836 408.91430664 C137.19874672 443.46378472 137.17750487 478.01325726 137.16479492 512.56274414 C137.16440034 513.62849512 137.16400576 514.6942461 137.16359923 515.79229256 C137.15964353 526.49541069 137.15581611 537.19852887 137.15208265 547.90164707 C137.14447487 569.70337801 137.13601111 591.50510858 137.12702942 613.30683899 C137.12641161 614.8103131 137.12641161 614.8103131 137.12578133 616.34416042 C137.09819886 683.22944868 137.05066556 750.11472573 137 817 C131.50892175 817.10067558 126.01840809 817.17229762 120.52661133 817.21972656 C118.66779192 817.23954715 116.80903225 817.26661182 114.95043945 817.30175781 C82.59439781 817.89721406 54.55518091 807.58740686 30.91796875 784.9765625 C12.83896075 766.98708409 0.1622735 740.15382236 -0.1241985 714.51394945 C-0.12893117 712.30735747 -0.12814728 710.10074953 -0.12304783 707.89415836 C-0.12420167 706.6704524 -0.12535552 705.44674644 -0.12654433 704.18595847 C-0.12873644 700.78658755 -0.12644191 697.38727305 -0.12226619 693.98790751 C-0.11882879 690.29078456 -0.1212034 686.59366461 -0.12284368 682.89654106 C-0.12491707 676.4161123 -0.12327423 669.93569273 -0.11920547 663.45526505 C-0.11317218 653.81909538 -0.11286951 644.18293151 -0.11374746 634.5467603 C-0.11506166 618.33744683 -0.11171881 602.12813743 -0.10573006 585.91882515 C-0.09981486 569.86748802 -0.09596448 553.81615259 -0.09487724 537.76481438 C-0.0948085 536.76712587 -0.09473976 535.76943737 -0.09466894 534.74151588 C-0.09433061 529.67484625 -0.09402923 524.60817663 -0.09374207 519.541507 C-0.09164115 483.64591562 -0.08490239 447.75032646 -0.07543945 411.85473633 C-0.06625643 376.98071301 -0.05917212 342.1066903 -0.05493164 307.23266602 C-0.05480011 306.15786644 -0.05466859 305.08306687 -0.05453308 303.97569761 C-0.05321457 293.18220701 -0.05193875 282.3887164 -0.05069422 271.59522579 C-0.04815794 249.60726129 -0.04533669 227.61929684 -0.04234314 205.6313324 C-0.04220585 204.6203414 -0.04206856 203.60935041 -0.04192711 202.56772332 C-0.03272505 135.04514796 -0.01687969 67.52257383 0 0 Z " fill="#092B55" transform="translate(600,0)"/>
<path d="M0 0 C45.21 0 90.42 0 137 0 C137 146.52 137 293.04 137 444 C93.16829536 444 61.13114392 439.08160115 29.703125 407.70703125 C3.89552818 380.43107116 -0.48919066 347.00592043 -0.34819686 311.11318195 C-0.33511516 306.92871182 -0.33963444 302.74425353 -0.34190369 298.55976868 C-0.34346883 291.32833944 -0.33413956 284.09699207 -0.31719017 276.86558342 C-0.292701 266.41048211 -0.28498481 255.95541996 -0.2812262 245.50029308 C-0.27467719 228.53329476 -0.25475831 211.56633996 -0.22631836 194.59936523 C-0.19873751 178.12768775 -0.17752368 161.65602212 -0.16479492 145.18432617 C-0.16400675 144.16723998 -0.16321858 143.1501538 -0.16240653 142.10224681 C-0.15849112 136.9992953 -0.15470007 131.89634371 -0.15097082 126.79339206 C-0.11992323 84.52888937 -0.06464636 42.26446728 0 0 Z " fill="#092B55" transform="translate(400,0)"/>
<path d="M0 0 C0 146.52 0 293.04 0 444 C-43.9547265 444 -75.88948989 439.06100244 -107.296875 407.70703125 C-131.16310912 382.4828907 -137.31634811 351.33754058 -137.2746582 317.7409668 C-137.27901239 315.41183307 -137.28419788 313.08270076 -137.29014587 310.75357056 C-137.30347118 304.46212019 -137.30412176 298.17073013 -137.30158257 291.87926841 C-137.30037216 285.94285092 -137.30660425 280.00644335 -137.31201603 274.07002888 C-137.32286117 261.59249171 -137.3207435 249.11498165 -137.31463119 236.63744298 C-137.30946495 225.25899708 -137.32071513 213.88063686 -137.33972941 202.5022079 C-137.35916944 190.77779586 -137.36735303 179.05342424 -137.36360615 167.328996 C-137.36180019 160.76307448 -137.36436067 154.19723145 -137.37832069 147.63132286 C-137.39096653 141.45304701 -137.38889136 135.27494171 -137.37590981 129.09666824 C-137.37355912 126.84137856 -137.37622395 124.58607661 -137.38453293 122.33080101 C-137.49456037 90.12065942 -129.76474697 61.49632255 -108 37 C-107.19949219 36.09894531 -106.39898437 35.19789063 -105.57421875 34.26953125 C-76.73081755 3.82109626 -40.38298188 0 0 0 Z " fill="#092B55" transform="translate(137,502)"/>
<path d="M0 0 C1.59159143 0.00596876 3.18318504 0.01138483 4.77478027 0.01623535 C8.6376685 0.02919449 12.50045032 0.04962158 16.36328125 0.07421875 C16.43204409 42.80999478 16.48485906 85.54576439 16.51647724 128.28158485 C16.52022907 133.33428908 16.52411207 138.3869932 16.52807617 143.43969727 C16.5288631 144.44554116 16.52965003 145.45138506 16.53046081 146.48770907 C16.54349192 162.74467089 16.56713304 179.00160067 16.59473964 195.25854353 C16.62285785 211.95682652 16.63947104 228.65509281 16.64554673 245.3533985 C16.6496499 255.64566012 16.66257914 265.93783117 16.68703065 276.23006489 C16.70296716 283.30108052 16.70766382 290.37204976 16.70378538 297.44308201 C16.70187607 301.51425851 16.70466886 305.58527746 16.72089767 309.65642548 C16.86744916 348.38931885 11.12848575 382.34895787 -16.94921875 410.88671875 C-38.17286028 431.79374835 -65.94472364 443.43996526 -95.74134827 443.360672 C-98.20670688 443.33778485 -100.67155987 443.30022929 -103.13671875 443.26171875 C-104.84634216 443.24661951 -106.55597871 443.23294052 -108.265625 443.22070312 C-112.3896575 443.18816995 -116.51303561 443.13668909 -120.63671875 443.07421875 C-120.72841222 399.84589774 -120.79882737 356.61758801 -120.84098007 313.3891889 C-120.84598248 308.27768827 -120.85115981 303.16618784 -120.85644531 298.0546875 C-120.85749455 297.03714346 -120.8585438 296.01959941 -120.85962483 294.9712207 C-120.87699736 278.52739229 -120.90851756 262.08362021 -120.94532993 245.63982514 C-120.9828273 228.74830671 -121.00497314 211.85681765 -121.01307273 194.96525931 C-121.01854231 184.55473921 -121.03577398 174.14437836 -121.06838462 163.73390731 C-121.08964127 156.58064669 -121.09589376 149.42746756 -121.09072426 142.2741777 C-121.0881797 138.15624916 -121.0918878 134.03859756 -121.11354065 129.92071915 C-121.2831796 95.93981891 -116.63025277 65.52171711 -93.63671875 39.07421875 C-93.15976562 38.46578125 -92.6828125 37.85734375 -92.19140625 37.23046875 C-87.75863199 31.65783825 -82.25015883 27.40591047 -76.63671875 23.07421875 C-75.85425781 22.46449219 -75.07179688 21.85476563 -74.265625 21.2265625 C-52.16372364 4.86444665 -26.91493846 -0.17660007 0 0 Z " fill="#092B55" transform="translate(920.63671875,373.92578125)"/>
</svg>
