<?xml version="1.0" encoding="UTF-8"?>
<svg version="1.1" xmlns="http://www.w3.org/2000/svg" width="835" height="834">
<path d="M0 0 C2.25139659 -0.00302417 4.50279215 -0.00691498 6.75418591 -0.01159257 C12.91308109 -0.02184707 19.07191789 -0.01969723 25.23081779 -0.01541197 C31.1997987 -0.01319432 37.16876662 -0.02036349 43.13774243 -0.02717223 C56.84575962 -0.04238002 70.55375828 -0.04412061 84.26178214 -0.0416492 C94.85054145 -0.03981363 105.43929472 -0.04158168 116.02805328 -0.04587364 C117.55154153 -0.04647605 119.07502978 -0.04707725 120.59851803 -0.04767724 C122.89452283 -0.04858454 125.19052764 -0.04949321 127.48653244 -0.0504096 C148.82275179 -0.05883435 170.15896888 -0.06317814 191.49518967 -0.05900288 C192.29885321 -0.0588465 193.10251676 -0.05869012 193.93053375 -0.05852901 C198.00343476 -0.05772328 202.07633577 -0.0568775 206.14923677 -0.05601571 C206.95806752 -0.05584462 207.76689826 -0.05567353 208.60023903 -0.05549726 C210.23588975 -0.0551506 211.87154047 -0.05480207 213.50719118 -0.05445167 C238.95282622 -0.04909555 264.3984266 -0.05702375 289.84405518 -0.07548523 C318.4604039 -0.09622304 347.07673116 -0.10692454 375.69308782 -0.10290974 C378.74714613 -0.10251442 381.80120444 -0.10215287 384.85526276 -0.10181236 C385.98316607 -0.10167627 385.98316607 -0.10167627 387.13385531 -0.10153742 C398.46160871 -0.10037376 409.78934035 -0.10700211 421.11708832 -0.11762428 C434.00745973 -0.12969973 446.89778337 -0.13120831 459.78815553 -0.11883412 C466.36047376 -0.11280653 472.93271769 -0.11182551 479.50503159 -0.12383652 C485.53045149 -0.13471978 491.55570054 -0.13156279 497.58111253 -0.11757483 C499.75192854 -0.11493464 501.92275805 -0.11727292 504.09356079 -0.1253107 C520.55472141 -0.18199336 536.21259845 1.2341909 552.08428955 5.88569641 C553.38209351 6.26419739 553.38209351 6.26419739 554.70611572 6.65034485 C582.7543972 15.19926384 610.1085326 32.42034188 628.70928955 55.26069641 C629.3142627 55.98917786 629.3142627 55.98917786 629.93145752 56.7323761 C653.42717017 85.11265597 667.91954357 120.58128526 667.84071732 157.7116127 C667.84379627 159.08026987 667.84379627 159.08026987 667.84693742 160.47657669 C667.8525807 163.52647687 667.85115348 166.5763315 667.84973145 169.62623596 C667.85231663 171.83818003 667.85533021 174.05012364 667.85873485 176.2620666 C667.86679035 182.3352386 667.86859361 188.40839878 667.86933231 194.48157549 C667.87099505 200.36085505 667.87731494 206.24012848 667.88341073 212.11940484 C667.89944837 227.86638148 667.90537183 243.61335713 667.91015947 259.36034047 C667.91249804 266.81589725 667.91610102 274.27145327 667.91985485 281.72700945 C667.93268946 307.26843594 667.94340786 332.80986201 667.94685745 358.35129166 C667.94707908 359.95379263 667.94730087 361.5562936 667.9475228 363.15879457 C667.94774344 364.76508191 667.94796392 366.37136926 667.94818425 367.9776566 C667.94862679 371.19993289 667.94907391 374.42220918 667.94952393 377.64448547 C667.94963332 378.44341893 667.94974271 379.24235238 667.94985541 380.06549593 C667.95348349 405.95254952 667.9693946 431.83957506 667.99271429 457.72661791 C668.01734693 485.12146053 668.03103192 512.51628714 668.03222537 539.91114116 C668.03239681 542.92236122 668.03261224 545.93358127 668.0328598 548.94480133 C668.03291557 549.6862019 668.03297134 550.42760247 668.0330288 551.19146973 C668.03417637 563.08963453 668.04517338 574.9877704 668.05974686 586.88592545 C668.07416051 598.86133845 668.07732152 610.83671464 668.06930688 622.81213394 C668.06541184 629.29163688 668.06627383 635.77104314 668.08036423 642.25053406 C668.09317207 648.1948885 668.09184559 654.13907427 668.07977352 660.08342871 C668.07782836 662.22147504 668.08083952 664.3595336 668.08961788 666.4975628 C668.15641684 683.8828809 667.09014127 701.34584295 661.95928955 718.07319641 C661.70324951 718.93445129 661.44720947 719.79570618 661.18341064 720.68305969 C658.6732051 728.85219757 655.47860228 736.59874778 651.70928955 744.26069641 C651.40265381 744.8916925 651.09601807 745.5226886 650.78009033 746.17280579 C642.94400985 762.11307525 632.63288711 775.35188812 620.0881958 787.87788391 C618.71920123 789.24912642 617.3674386 790.63917424 616.06866455 792.07710266 C593.6077809 816.44607108 554.22926203 832.96726073 521.5088748 834.35394993 C519.08904255 834.39058053 516.67100145 834.397165 514.2508955 834.39212418 C512.86280982 834.39520313 512.86280982 834.39520313 511.44668201 834.39834428 C508.34671964 834.40399739 505.24680193 834.40255911 502.14683533 834.40113831 C499.90133053 834.40372292 497.65582619 834.40673635 495.41032249 834.41014171 C489.23981735 834.41820384 483.06932386 834.42000084 476.89881408 834.42073917 C470.92702185 834.42240091 464.95523497 834.42872 458.98344603 834.43481759 C442.98693806 834.45086153 426.99043107 834.45677936 410.99391651 834.46156633 C403.42165848 834.46390422 395.84940121 834.46750711 388.27714377 834.47126171 C362.34076005 834.48409673 336.40437675 834.49481522 310.46798992 834.49826431 C308.84045952 834.49848594 307.21292912 834.49870773 305.58539872 834.49892966 C303.95400168 834.4991503 302.32260463 834.49937079 300.69120759 834.49959111 C297.41850769 834.50003366 294.1458078 834.50048077 290.87310791 834.50093079 C290.06167131 834.50104018 289.25023471 834.50114957 288.41420913 834.50126227 C262.11847866 834.50489084 235.8227758 834.52080356 209.5270559 834.54412115 C181.70590301 834.56874615 153.88476589 834.58243842 126.06360179 834.58363223 C123.00634276 834.58380368 119.94908374 834.5840191 116.89182472 834.58426666 C115.76270404 834.58435032 115.76270404 834.58435032 114.61077284 834.58443566 C102.52340218 834.58558388 90.43605997 834.59658646 78.3486989 834.61115372 C66.18612396 834.62555751 54.02358527 834.62873389 41.86100414 834.62071374 C35.2784749 834.61666437 28.69602183 834.61769802 22.1135025 834.63177109 C16.07730927 834.64455766 10.0412823 834.6432708 4.00508914 834.63118038 C1.83138255 834.62923159 -0.34233601 834.63226357 -2.51602582 834.64102474 C-47.63219755 834.81122859 -86.56339471 819.42531631 -119.29071045 788.26069641 C-120.53787842 787.12761047 -120.53787842 787.12761047 -121.8102417 785.97163391 C-149.56795695 759.87310357 -165.24047741 719.78181976 -167.29071045 682.26069641 C-167.47732822 675.11524776 -167.43023225 667.96517748 -167.42442322 660.81791687 C-167.42629321 658.63424408 -167.42859467 656.45057163 -167.43128854 654.2668997 C-167.43738963 648.28592501 -167.43727494 642.30496434 -167.43609416 636.32398725 C-167.43588973 629.86571364 -167.441413 623.40744449 -167.44615173 616.94917297 C-167.45466605 604.30343523 -167.45721916 591.65770146 -167.45776411 579.01196115 C-167.45822429 568.73017319 -167.46028592 558.44838674 -167.46346474 548.16659927 C-167.46436233 545.20314427 -167.46525215 542.23968927 -167.46613961 539.27623427 C-167.46636066 538.53943391 -167.46658171 537.80263355 -167.46680946 537.0435059 C-167.47296073 516.32816472 -167.47691032 495.61282406 -167.47646618 474.89748192 C-167.4764506 474.1170121 -167.47643502 473.33654229 -167.47641897 472.53242188 C-167.47633587 468.577004 -167.47623683 464.62158613 -167.47613426 460.66616826 C-167.47611432 459.88065986 -167.47609437 459.09515147 -167.47607382 458.28583979 C-167.47603339 456.69735118 -167.47599159 455.10886256 -167.47594843 453.52037394 C-167.47533586 428.81352893 -167.48284007 404.10669765 -167.496521 379.39985657 C-167.51189855 351.61780672 -167.52048621 323.8357659 -167.51955777 296.05371153 C-167.51948315 293.0883704 -167.51943444 290.12302927 -167.51940346 287.15768814 C-167.5193918 286.42759 -167.51938015 285.69749187 -167.51936814 284.94526955 C-167.51933743 273.22242332 -167.52570919 261.49958907 -167.53433572 249.7767464 C-167.54283365 237.98434961 -167.54361462 226.1919717 -167.5372264 214.39957349 C-167.53396665 208.01765466 -167.53388487 201.63577899 -167.54257965 195.25386429 C-167.55046959 189.40233758 -167.54898781 183.55088807 -167.54029552 177.69936319 C-167.53876601 175.59174362 -167.54055577 173.48411822 -167.54615559 171.37650554 C-167.58587257 155.35671172 -167.02251762 139.44212137 -163.10321045 123.82319641 C-162.88890381 122.95469055 -162.67459717 122.08618469 -162.45379639 121.19136047 C-155.28366201 93.2308789 -141.46330487 68.88090757 -121.29071045 48.26069641 C-120.4811792 47.40089172 -119.67164795 46.54108704 -118.83758545 45.65522766 C-87.44674651 12.99862909 -44.14766671 -0.08431633 0 0 Z M114.70928955 168.26069641 C99.70686355 185.28365117 97.24151249 204.43792183 97.348526 226.16691589 C97.34721572 228.1589041 97.34458523 230.15089179 97.3407585 232.14287674 C97.33408524 237.58406843 97.34600253 243.02508126 97.36109269 248.46625018 C97.37409457 254.34608603 97.36966066 260.22591247 97.36738586 266.10575867 C97.36581575 276.28218331 97.37519756 286.45855008 97.39209938 296.63496017 C97.40980466 307.30208988 97.42140332 317.96919635 97.42465782 328.63634109 C97.42486404 329.30082519 97.42507026 329.96530929 97.42528273 330.64992927 C97.4262978 334.02482539 97.42720192 337.39972153 97.42806336 340.77461769 C97.43435626 364.6480854 97.45454501 388.52152299 97.48297119 412.39497375 C97.51054632 435.58051901 97.53178645 458.766056 97.54449463 481.95161438 C97.54488921 482.66691985 97.54528379 483.38222532 97.54569032 484.11920672 C97.54964605 491.30292394 97.55347347 498.48664123 97.5572069 505.67035858 C97.56481452 520.30302086 97.57327828 534.93568261 97.58226013 549.56834412 C97.582672 550.24105674 97.58308387 550.91376936 97.58350822 551.60686722 C97.61108703 596.49148959 97.65868251 641.37609479 97.70928955 686.26069641 C100.86548632 686.30854331 104.02158771 686.33698285 107.17803955 686.36225891 C108.0607251 686.37587463 108.94341064 686.38949036 109.85284424 686.40351868 C127.70969291 686.51039668 143.91541005 679.74721544 156.70928955 667.26069641 C172.55472884 649.4158326 175.18278835 630.07661125 175.0700531 607.27218628 C175.07136367 605.28345982 175.07399469 603.29473387 175.0778206 601.30601066 C175.0844882 595.87847963 175.07258451 590.45112819 175.05748641 585.02362001 C175.04447623 579.15675349 175.04891902 573.2898963 175.05119324 567.42301941 C175.05276283 557.27062156 175.04338649 547.11828176 175.02647972 536.96589851 C175.00877053 526.32471287 174.99717499 515.6835572 174.99392128 505.04235649 C174.99371506 504.37932748 174.99350884 503.71629847 174.99329637 503.03317766 C174.9922813 499.66563055 174.99137717 496.29808342 174.99051575 492.93053626 C174.98422393 469.11308368 174.96403824 445.29566129 174.93560791 421.47822571 C174.90802989 398.348019 174.88679118 375.21782057 174.87408447 352.08760071 C174.8734926 351.01708087 174.8734926 351.01708087 174.87288878 349.92493438 C174.86893303 342.75750017 174.86510562 335.5900659 174.8613722 328.42263158 C174.85376471 313.82331889 174.84530096 299.22400673 174.83631897 284.62469482 C174.8359071 283.95352498 174.83549523 283.28235513 174.83507088 282.59084681 C174.8074951 237.81411736 174.75989995 193.03740503 174.70928955 148.26069641 C171.55309278 148.21284951 168.39699139 148.18440997 165.24053955 148.15913391 C164.357854 148.14551819 163.47516846 148.13190247 162.56573486 148.11787415 C143.98023479 148.00663496 127.95409167 155.31605978 114.70928955 168.26069641 Z M211.70928955 148.26069641 C211.64145387 173.03532905 211.58623875 197.80988598 211.55385303 222.58458805 C211.53841317 234.08904417 211.51737892 245.5934383 211.48297119 257.09785461 C211.45298044 267.13025072 211.43369364 277.16260191 211.42702407 287.1950416 C211.42312816 292.50246046 211.41403275 297.80975086 211.39209938 303.11712837 C211.37158109 308.12313428 211.36548646 313.12896007 211.36996651 318.13500404 C211.36914812 319.96219108 211.3632746 321.7893848 211.35167313 323.61653519 C211.21876592 345.64831035 215.16691042 364.19021097 230.17803955 381.03022766 C246.73075989 397.25887365 265.63880946 399.26069641 288.70928955 399.26069641 C288.70928955 316.43069641 288.70928955 233.60069641 288.70928955 148.26069641 C263.29928955 148.26069641 237.88928955 148.26069641 211.70928955 148.26069641 Z M325.70928955 148.26069641 C325.66349358 199.48959915 325.62826092 250.71849981 325.60715889 301.947419 C325.60465753 307.99797114 325.60206888 314.04852324 325.59942627 320.09907532 C325.59890165 321.30361134 325.59837703 322.50814736 325.59783651 323.74918447 C325.58913824 343.24277662 325.57337144 362.73635696 325.55498396 382.2299421 C325.53626885 402.23800853 325.52516942 422.24606877 325.52111256 442.2541436 C325.51837085 454.59625162 325.50971698 466.93832624 325.49345662 479.28042398 C325.48286986 487.74837728 325.47969276 496.21631335 325.4822868 504.68427278 C325.48356545 509.56692253 325.48163046 514.44951398 325.4708786 519.33215332 C325.46109117 523.80970659 325.46069003 528.28716277 325.46749176 532.76472066 C325.46833147 534.37734327 325.46584117 535.98997214 325.45952319 537.60258259 C325.37850788 559.57367662 328.82553445 578.83714175 344.27178955 595.44819641 C357.80199905 608.36246314 374.77157229 613.49517469 393.14678955 613.32319641 C394.53027588 613.31642883 394.53027588 613.31642883 395.94171143 613.30952454 C398.19764003 613.29783579 400.45342922 613.28145096 402.70928955 613.26069641 C402.8008893 561.15707088 402.87135075 509.05345351 402.91355087 456.94976326 C402.91855356 450.79535087 402.92373086 444.64093864 402.92901611 438.48652649 C402.93058998 436.64871447 402.93058998 436.64871447 402.93219563 434.77377493 C402.94959034 414.94781382 402.9811229 395.12189921 403.01790074 375.29596566 C403.05533612 354.94550281 403.07753091 334.59506428 403.08564353 314.24456841 C403.0911259 301.69206071 403.10842776 289.13968445 403.14095542 276.58721722 C403.16213535 267.97394124 403.16848171 259.360733 403.16329506 250.74743288 C403.16073872 245.78155609 403.16459617 240.81590864 403.18611145 235.85007286 C403.2057008 231.29527598 403.20647993 226.7408608 403.19288513 222.18604565 C403.19120707 220.54648175 403.19617584 218.90689318 403.20882228 217.26737719 C403.34930219 197.91507123 398.62784069 180.82705289 385.03692627 166.3730011 C373.74671646 154.99479576 357.93765767 148.2541874 341.92022705 148.06538391 C339.97481718 148.07844035 338.02945027 148.10193528 336.08428955 148.13569641 C335.08010986 148.14471985 334.07593018 148.15374329 333.0413208 148.16304016 C330.59704829 148.18631895 328.15330547 148.21901154 325.70928955 148.26069641 Z M456.39678955 382.32319641 C443.09877181 397.76535708 440.24851806 414.98474055 440.36871338 434.68525696 C440.36956078 436.63759345 440.36908231 438.5899309 440.36738586 440.54226685 C440.36652888 445.81425947 440.38410637 451.08604526 440.40510774 456.35799003 C440.42392427 461.87794161 440.42562889 467.39789849 440.42918396 472.9178772 C440.43848983 483.35818351 440.46308385 493.79839502 440.49323243 504.23865968 C440.52682188 516.12984808 440.54327387 528.02104112 440.55831873 539.91226518 C440.58963472 564.36179471 440.64236679 588.81124024 440.70928955 613.26069641 C443.38514102 613.28794117 446.06070857 613.30765243 448.7366333 613.32319641 C449.48408813 613.33157532 450.23154297 613.33995422 451.00164795 613.34858704 C468.85272195 613.42605305 485.84719198 606.77516973 498.70928955 594.26069641 C514.36693004 577.88744164 517.18345118 559.37272571 517.04986572 537.79267883 C517.04901793 535.85975152 517.04949756 533.92682324 517.05119324 531.99389648 C517.05204867 526.78400246 517.03449667 521.5743186 517.01347136 516.3644731 C516.99462862 510.90592646 516.99294816 505.4473742 516.98939514 499.98880005 C516.9800969 489.668974 516.95551335 479.3492441 516.92534667 469.02946025 C516.89173329 457.27365236 516.87529925 445.51783971 516.86026037 433.76199567 C516.8289617 409.59484277 516.77624467 385.42777499 516.70928955 361.26069641 C514.04121039 361.22660923 511.37357778 361.20198756 508.7053833 361.18257141 C507.58891418 361.16686096 507.58891418 361.16686096 506.44989014 361.15083313 C486.98289597 361.04506299 469.94285557 368.50662523 456.39678955 382.32319641 Z M4.70928955 451.26069641 C4.09440674 451.79307922 3.47952393 452.32546204 2.8460083 452.87397766 C-8.90180973 463.78824763 -15.5155801 479.55369623 -16.48254013 495.40543175 C-16.56287949 498.88215754 -16.58382916 502.35408567 -16.58123779 505.83174133 C-16.58795502 507.14388611 -16.59467224 508.45603088 -16.60159302 509.80793762 C-16.61911005 513.37644763 -16.62394234 516.94486147 -16.62522459 520.51341033 C-16.62665511 522.75237168 -16.63094161 524.99130927 -16.63621902 527.23026466 C-16.65467325 535.06830497 -16.66289559 542.90627768 -16.66131592 550.74433899 C-16.66011633 558.00673061 -16.6811945 565.2688242 -16.71280324 572.53114051 C-16.73910889 578.8024874 -16.74967725 585.07373781 -16.7484051 591.34513932 C-16.74789957 595.0746639 -16.75335257 598.80392323 -16.7747612 602.53339195 C-16.90893503 627.65985456 -15.52299809 649.0500909 2.70928955 668.26069641 C19.73902137 684.62768063 37.50655292 686.26069641 60.70928955 686.26069641 C60.70928955 603.43069641 60.70928955 520.60069641 60.70928955 435.26069641 C37.38246462 435.26069641 22.08888909 436.03253666 4.70928955 451.26069641 Z " fill="#092B55" transform="translate(167.29071044921875,-0.2606964111328125)"/>
</svg>
